<svg width="40" height="40" viewBox="0 0 40 40" fill="none" xmlns="http://www.w3.org/2000/svg">
<path d="M20 3.33337C21.3261 3.33337 22.5979 3.86016 23.5355 4.79784C24.4732 5.73552 25 7.00729 25 8.33337V18.3334C25 19.6595 24.4732 20.9312 23.5355 21.8689C22.5979 22.8066 21.3261 23.3334 20 23.3334C18.6739 23.3334 17.4022 22.8066 16.4645 21.8689C15.5268 20.9312 15 19.6595 15 18.3334V8.33337C15 7.00729 15.5268 5.73552 16.4645 4.79784C17.4022 3.86016 18.6739 3.33337 20 3.33337V3.33337ZM31.6667 18.3334C31.6667 24.2167 27.3167 29.0667 21.6667 29.8834V35H18.3333V29.8834C12.6833 29.0667 8.33334 24.2167 8.33334 18.3334H11.6667C11.6667 20.5435 12.5447 22.6631 14.1075 24.2259C15.6703 25.7887 17.7899 26.6667 20 26.6667C22.2101 26.6667 24.3298 25.7887 25.8926 24.2259C27.4554 22.6631 28.3333 20.5435 28.3333 18.3334H31.6667Z" fill="#F4F4F4"/>
</svg>
